<?xml version="1.0" standalone="no"?>
<!DOCTYPE svg PUBLIC "-//W3C//DTD SVG 20010904//EN"
 "http://www.w3.org/TR/2001/REC-SVG-20010904/DTD/svg10.dtd">
<svg version="1.0" xmlns="http://www.w3.org/2000/svg"
 width="460.000000pt" height="460.000000pt" viewBox="0 0 460.000000 460.000000"
 preserveAspectRatio="xMidYMid meet">
<metadata>
Created by potrace 1.14, written by Peter Selinger 2001-2017
</metadata>
<g transform="translate(0.000000,460.000000) scale(0.100000,-0.100000)"
fill="#000000" stroke="none">
<path d="M1775 4394 c-16 -7 -40 -13 -52 -14 -13 0 -23 -6 -23 -13 0 -8 -11
-20 -25 -27 -14 -7 -23 -15 -20 -18 6 -6 -21 -32 -34 -32 -6 0 -11 -4 -11 -10
0 -5 -7 -10 -16 -10 -8 0 -13 -4 -10 -9 4 -5 -3 -7 -14 -4 -11 3 -20 0 -20 -6
0 -6 -7 -11 -16 -11 -8 0 -13 -4 -10 -9 7 -11 -22 -23 -35 -15 -5 3 -9 0 -9
-6 0 -6 -4 -9 -9 -6 -5 3 -12 -5 -15 -19 -4 -14 -13 -25 -21 -25 -15 0 -20
-26 -15 -78 1 -13 -6 -34 -15 -48 -14 -22 -15 -28 -3 -42 15 -18 13 -56 -3
-47 -5 4 -4 -6 1 -21 6 -15 9 -33 6 -41 -3 -7 -1 -13 5 -13 6 0 8 -8 5 -17 -4
-10 -4 -14 0 -10 4 4 13 -1 21 -11 10 -11 12 -12 8 -2 -4 8 1 6 9 -4 22 -28
20 -45 -8 -55 -15 -6 -25 -20 -29 -40 -4 -17 -16 -41 -27 -53 -11 -12 -20 -28
-20 -36 0 -16 25 -43 33 -36 11 12 20 -45 20 -128 0 -49 4 -88 8 -88 5 0 8 -6
6 -12 -1 -7 3 -12 9 -11 6 1 9 -10 6 -27 -2 -17 -1 -38 3 -47 4 -10 8 -37 9
-61 1 -25 8 -47 16 -52 12 -8 12 -10 1 -10 -11 0 -11 -3 -1 -15 6 -8 12 -44
12 -82 2 -243 1 -384 -1 -458 -1 -38 1 -81 4 -95 3 -14 7 -49 10 -79 2 -30 9
-57 15 -61 7 -4 11 -11 10 -16 -1 -4 12 -16 30 -25 42 -23 38 -16 46 -89 3
-36 10 -70 15 -76 6 -7 11 -26 12 -43 1 -17 5 -31 8 -31 3 0 6 -6 7 -12 2 -22
8 -41 25 -81 9 -21 18 -50 20 -63 2 -14 9 -29 16 -33 7 -5 11 -11 9 -15 -6
-11 37 -66 52 -67 10 0 11 -2 3 -6 -9 -3 -7 -11 7 -26 11 -11 20 -27 20 -34 0
-7 4 -13 9 -13 6 0 10 -8 10 -17 0 -10 4 -45 10 -78 13 -75 24 -311 16 -342
-3 -13 -10 -23 -16 -23 -5 0 -26 -16 -46 -35 -31 -30 -50 -38 -80 -34 -3 0
-10 -6 -15 -15 -5 -9 -16 -16 -24 -16 -8 0 -12 -4 -9 -10 3 -5 -2 -10 -13 -10
-10 0 -41 -11 -68 -25 -27 -14 -55 -25 -62 -25 -7 0 -10 -4 -7 -10 3 -5 -7
-12 -22 -16 -15 -4 -34 -11 -40 -17 -7 -5 -13 -6 -13 -1 0 5 -4 5 -8 -1 -12
-17 -89 -55 -96 -48 -3 3 -6 -2 -6 -13 0 -16 -2 -17 -10 -4 -8 13 -10 13 -10
-2 0 -11 -5 -15 -15 -12 -8 4 -15 1 -15 -5 0 -6 -11 -11 -25 -11 -14 0 -25 -5
-25 -11 0 -5 -4 -8 -9 -4 -5 3 -16 -2 -24 -10 -9 -8 -23 -15 -31 -15 -9 0 -16
-4 -16 -10 0 -5 -17 -12 -37 -16 -21 -4 -48 -13 -60 -21 -12 -8 -23 -14 -25
-12 -7 5 -48 -13 -48 -21 0 -7 -12 -11 -62 -25 -5 -2 -15 -3 -24 -4 -8 0 -13
-5 -10 -9 4 -7 -17 -12 -61 -15 -7 0 -13 -3 -13 -6 0 -4 -10 -7 -23 -9 -13 -1
-41 -9 -63 -19 -21 -9 -42 -16 -46 -15 -5 1 -8 -3 -8 -8 0 -6 -7 -10 -15 -10
-9 0 -18 -7 -21 -15 -4 -8 -10 -12 -15 -9 -5 3 -9 0 -9 -7 0 -7 -3 -9 -6 -6
-10 9 -46 -12 -39 -24 4 -5 -1 -9 -10 -9 -8 0 -18 -7 -21 -15 -4 -8 -15 -15
-26 -15 -10 0 -17 -4 -14 -9 6 -8 -68 -28 -87 -23 -4 1 -10 -5 -13 -13 -3 -8
-10 -12 -15 -9 -5 3 -12 -2 -15 -10 -3 -9 -9 -14 -13 -11 -4 2 -16 -10 -26
-28 -10 -18 -24 -36 -32 -40 -7 -4 -13 -13 -13 -18 0 -16 -52 -69 -62 -63 -4
3 -5 -2 -2 -10 4 -9 0 -18 -9 -22 -8 -3 -14 -13 -13 -22 2 -9 -4 -23 -13 -30
-13 -11 -13 -12 -1 -7 8 4 3 -5 -13 -19 -15 -14 -27 -32 -27 -41 0 -8 -5 -15
-11 -15 -5 0 -7 -4 -4 -10 3 -5 0 -10 -9 -10 -13 0 -33 -52 -28 -73 2 -5 -3
-5 -9 -1 -9 5 -10 2 -6 -10 4 -9 3 -15 -2 -12 -9 6 -26 -22 -23 -36 1 -5 -3
-8 -9 -8 -5 0 -7 -5 -4 -10 3 -6 -1 -13 -10 -16 -13 -6 -14 -8 -3 -15 10 -7
10 -9 1 -9 -7 0 -13 -9 -13 -20 0 -20 7 -20 2300 -20 l2300 0 0 393 0 394 -42
14 c-24 7 -49 19 -56 26 -8 7 -17 11 -22 8 -4 -3 -13 2 -20 9 -6 8 -25 18 -41
21 -16 4 -29 10 -29 14 0 4 -6 8 -12 8 -24 0 -88 32 -88 43 0 6 -4 8 -10 5 -5
-3 -10 -2 -10 4 0 6 -7 8 -15 5 -8 -4 -15 -1 -15 5 0 6 -3 10 -7 9 -7 -1 -33
8 -83 29 -8 3 -21 5 -27 4 -7 -1 -13 5 -13 14 0 9 -5 13 -10 10 -6 -3 -24 3
-40 15 -16 12 -34 18 -40 15 -5 -3 -10 1 -10 9 0 9 -3 15 -7 14 -15 -4 -53 13
-53 24 0 5 -7 7 -16 4 -8 -3 -13 -2 -10 3 5 8 -5 13 -39 20 -5 1 -20 9 -32 17
-13 8 -23 12 -23 8 0 -3 -11 1 -25 10 -13 9 -34 16 -45 16 -12 0 -18 5 -15 10
4 6 -5 10 -19 10 -14 0 -26 5 -26 11 0 5 -4 8 -9 4 -5 -3 -16 1 -24 9 -8 8
-17 13 -20 10 -3 -4 -12 -2 -19 2 -16 11 -36 15 -70 16 -15 1 -26 6 -25 12 1
6 -8 12 -20 14 -13 2 -23 8 -23 14 0 5 -7 7 -16 4 -10 -4 -18 0 -21 12 -3 13
-12 18 -29 16 -13 -1 -24 1 -24 5 0 6 -30 11 -77 14 -7 0 -13 4 -13 9 0 4 -12
8 -26 8 -14 0 -23 4 -19 10 3 6 0 10 -8 10 -16 0 -58 46 -50 54 4 3 1 6 -5 6
-7 0 -12 7 -12 15 0 8 -5 15 -11 15 -5 0 -8 4 -5 8 3 5 -1 20 -9 35 -8 15 -11
27 -8 27 3 0 1 6 -4 13 -5 6 -8 28 -6 47 1 19 4 91 7 160 5 152 14 223 29 232
8 5 8 8 -3 8 -11 0 -11 3 -2 12 7 7 12 20 12 30 0 10 6 18 13 18 7 0 8 3 2 8
-12 8 -15 53 -3 46 4 -3 8 3 9 13 1 10 2 25 3 33 2 8 3 30 4 48 1 18 6 31 11
28 4 -3 7 6 5 19 -1 14 1 27 6 30 4 3 6 15 2 27 -3 13 -1 19 5 15 6 -4 13 2
16 13 4 16 14 20 51 20 26 0 46 5 46 11 0 5 5 7 10 4 6 -3 10 1 10 9 0 9 4 16
10 16 5 0 12 11 16 25 3 14 10 25 14 25 7 0 11 12 25 63 2 4 3 8 5 10 13 16
17 134 6 217 -4 30 -8 74 -10 96 -2 23 -7 47 -10 53 -4 6 -1 11 6 11 10 0 10
2 1 8 -7 4 -14 31 -15 60 -2 29 -6 52 -10 52 -10 0 -7 150 4 156 4 3 6 10 3
15 -4 5 -1 9 5 9 6 0 9 4 6 8 -2 4 -1 14 4 22 5 8 5 22 -1 32 -5 10 -6 18 -1
18 18 0 20 304 2 315 -4 3 -4 23 0 45 4 22 3 40 -1 40 -5 0 -9 18 -9 40 0 22
-4 40 -9 40 -5 0 -12 16 -15 35 -4 20 -11 33 -17 30 -5 -4 -9 -1 -9 5 0 6 -5
8 -12 4 -6 -4 -8 -3 -5 3 4 5 -3 20 -14 31 -11 12 -16 22 -12 22 4 0 -3 7 -15
16 -12 8 -20 19 -17 24 3 5 -3 18 -15 30 -11 11 -20 25 -20 30 0 6 -7 10 -15
10 -8 0 -15 4 -15 10 0 5 -3 9 -7 8 -17 -5 -53 23 -46 35 4 7 -2 5 -12 -3 -11
-9 -16 -10 -11 -2 4 7 2 12 -7 12 -8 0 -29 18 -48 40 -19 22 -40 40 -46 40 -7
0 -13 5 -13 10 0 6 -6 10 -13 10 -7 0 -23 9 -35 20 -12 12 -22 18 -22 15 0 -3
-9 -1 -20 5 -11 6 -18 15 -15 20 3 6 0 7 -8 4 -8 -3 -20 3 -28 13 -13 17 -13
17 6 4 11 -8 9 -4 -5 10 -35 33 -75 56 -65 37 3 -7 1 -6 -7 3 -7 9 -19 14 -27
11 -8 -3 -11 0 -7 7 4 6 1 11 -7 11 -8 0 -27 7 -43 14 -15 8 -31 13 -36 10 -4
-3 -8 0 -8 6 0 6 -4 8 -10 5 -5 -3 -10 -2 -10 4 0 5 -8 8 -17 6 -10 -1 -26 5
-36 13 -19 17 -12 17 -357 12 -80 -1 -153 -7 -164 -12 -13 -7 -16 -7 -12 1 4
6 2 11 -3 11 -6 0 -11 -5 -11 -11 0 -8 -4 -8 -14 1 -8 6 -23 10 -33 8 -10 -1
-23 1 -30 5 -6 4 -23 8 -37 9 -14 1 -26 6 -26 10 0 4 -11 3 -25 -2 -15 -6 -26
-6 -30 0 -4 7 -13 6 -26 0 -14 -8 -19 -7 -19 1 0 8 -4 9 -13 0 -8 -6 -18 -7
-23 -2 -5 5 -22 2 -39 -5z"/>
</g>
</svg>
